<?xml version="1.0" standalone="no"?>
<!DOCTYPE svg PUBLIC "-//W3C//DTD SVG 20010904//EN"
 "http://www.w3.org/TR/2001/REC-SVG-20010904/DTD/svg10.dtd">
<svg version="1.0" xmlns="http://www.w3.org/2000/svg"
 width="884.000000pt" height="884.000000pt" viewBox="0 0 884.000000 884.000000"
 preserveAspectRatio="xMidYMid meet">
<metadata>
Created by potrace 1.11, written by Peter Selinger 2001-2013
</metadata>
<g transform="translate(0.000000,884.000000) scale(0.100000,-0.100000)"
fill="#000000" stroke="none">
<path d="M7208 6672 c-27 -11 -67 -72 -84 -127 -16 -50 -25 -108 -44 -261 -10
-81 -31 -147 -50 -159 -40 -24 -80 62 -80 169 1 33 10 104 21 156 11 52 21
102 22 110 1 11 -12 17 -48 21 -27 3 -53 5 -56 3 -15 -8 -33 -190 -34 -334 0
-202 24 -299 93 -372 22 -24 34 -28 77 -28 43 0 55 4 74 26 49 57 78 155 101
349 15 127 34 175 70 175 11 0 23 -16 35 -45 14 -38 16 -68 12 -183 -5 -125
-11 -177 -32 -283 -7 -36 -7 -37 31 -41 56 -7 72 4 79 60 3 26 10 75 15 108
14 83 13 364 -1 438 -26 137 -74 211 -144 220 -22 3 -48 2 -57 -2z"/>
<path d="M1590 6035 l0 -595 1622 0 c1359 0 1620 -2 1608 -13 -8 -8 -738 -477
-1622 -1042 l-1608 -1029 0 -688 0 -688 2500 0 2500 0 0 595 0 595 -1617 2
-1618 3 1642 1050 1642 1050 1 678 0 677 -2525 0 -2525 0 0 -595z"/>
<path d="M6857 5653 c-10 -9 -8 -755 1 -771 7 -9 70 -12 283 -10 l274 3 3 393
2 393 -47 -3 -48 -3 -3 -252 -2 -253 -69 0 c-56 0 -70 3 -76 17 -3 10 -5 111
-4 226 1 114 -1 210 -5 214 -3 3 -23 6 -43 6 l-38 0 -5 -229 c-3 -126 -7 -230
-8 -232 -1 -2 -28 -2 -59 0 l-58 3 -3 253 -2 252 -44 0 c-23 0 -46 -3 -49 -7z"/>
<path d="M7208 4592 c-27 -11 -67 -72 -84 -127 -16 -50 -25 -108 -44 -261 -10
-81 -31 -147 -50 -159 -40 -24 -80 62 -80 169 1 33 10 104 21 156 11 52 21
102 22 110 1 11 -12 17 -48 21 -27 3 -53 5 -56 3 -15 -8 -33 -190 -34 -334 0
-202 24 -299 93 -372 22 -24 34 -28 77 -28 43 0 55 4 74 26 49 57 78 155 101
349 15 127 34 175 70 175 11 0 23 -16 35 -45 14 -38 16 -68 12 -183 -5 -125
-11 -175 -32 -285 l-8 -38 54 3 54 3 7 40 c23 136 28 202 28 342 0 220 -23
328 -85 398 -31 35 -91 53 -127 37z"/>
<path d="M6859 3524 c-5 -7 -8 -67 -7 -135 l3 -124 283 -3 282 -2 0 135 0 134
-276 3 c-197 2 -278 0 -285 -8z"/>
<path d="M7035 3043 c-121 -84 -180 -256 -180 -523 0 -183 28 -328 82 -419 33
-56 47 -72 98 -108 34 -23 50 -27 105 -27 53 0 72 5 103 27 117 80 177 258
177 522 0 350 -106 555 -286 555 -48 0 -67 -5 -99 -27z m199 -279 c63 -54 86
-121 86 -250 0 -130 -28 -199 -99 -248 -53 -37 -124 -36 -174 2 -86 66 -119
220 -79 370 14 55 25 75 61 109 43 42 47 43 109 43 55 0 69 -4 96 -26z"/>
</g>
</svg>
